<svg xmlns="http://www.w3.org/2000/svg" viewBox="0 0 96 96" width="96" height="96">
  <!-- Background -->
  <rect x="4" y="8" width="80" height="56" rx="8" ry="8" fill="#1F6FEB"/>
  <!-- Screen inner -->
  <rect x="12" y="16" width="64" height="40" rx="3" ry="3" fill="#0D1117"/>
  <!-- Cast waves -->
  <path d="M22 46 Q26 34 34 34" stroke="#3FB950" stroke-width="2.5" fill="none" stroke-linecap="round"/>
  <path d="M18 42 Q26 26 38 26" stroke="#3FB950" stroke-width="2.5" fill="none" stroke-linecap="round"/>
  <path d="M14 38 Q26 18 42 18" stroke="#3FB950" stroke-width="2.5" fill="none" stroke-linecap="round"/>
  <!-- Wi-Fi dot -->
  <circle cx="34" cy="46" r="2.5" fill="#3FB950"/>
  <!-- Phone -->
  <rect x="42" y="28" width="12" height="20" rx="2" ry="2" fill="#58A6FF"/>
  <rect x="44" y="30" width="8" height="14" rx="1" ry="1" fill="#0D1117"/>
  <circle cx="48" cy="45.5" r="1" fill="#58A6FF"/>
  <!-- Stand -->
  <rect x="36" y="64" width="16" height="3" rx="1.5" fill="#8B949E"/>
  <rect x="30" y="67" width="28" height="4" rx="2" fill="#8B949E"/>
</svg>
